<svg width="16" height="16" viewBox="0 0 16 16" fill="none" xmlns="http://www.w3.org/2000/svg">
<path fill-rule="evenodd" clip-rule="evenodd" d="M11.9691 11.4997C10.9113 12.4334 9.52184 13 8 13C6.47816 13 5.08865 12.4334 4.03091 11.4997C4.01051 11.336 4 11.1692 4 11C4 8.79086 5.79086 7 8 7C10.2091 7 12 8.79086 12 11C12 11.1692 11.9895 11.336 11.9691 11.4997Z" fill="#8C8A85"/>
<path d="M6 4C6 2.89543 6.89543 2 8 2C9.10457 2 10 2.89543 10 4C10 5.10457 9.10457 6 8 6C6.89543 6 6 5.10457 6 4Z" fill="#8C8A85"/>
</svg>
