<svg width="56" height="50" viewBox="0 0 56 50" fill="none" xmlns="http://www.w3.org/2000/svg">
<path d="M15.0101 0L28.0421 22.4299L40.6086 0H33.5109L28.0421 10.0467L22.1079 0H15.0101Z" fill="#00B4FF"/>
<path d="M13.1484 1.16822L25.9799 23.7144L18.8356 23.7549L9.48311 7.54201L13.1484 1.16822Z" fill="#00B4FF"/>
<path d="M15.8198 23.6255L0.232718 23.6282L3.72343 17.558L12.3834 17.4518L15.8198 23.6255Z" fill="#00B4FF"/>
<path d="M43.0844 1.40187L35.2932 14.956L42.3367 15.055L46.5751 7.47214L43.0844 1.40187Z" fill="#00B4FF"/>
<path d="M30.1365 23.7457L56 23.8619L52.3347 17.4881L33.6737 17.5136L30.1365 23.7457Z" fill="#00B4FF"/>
<path d="M42.8516 48.8619L30.0201 26.3158L37.1644 26.2752L46.5169 42.4881L42.8516 48.8619Z" fill="#00B4FF"/>
<path d="M40.1802 26.4046L55.7673 26.4019L52.2766 32.4721L43.6166 32.5783L40.1802 26.4046Z" fill="#00B4FF"/>
<path d="M14.8937 50L27.9257 27.5701L31.5328 33.7617L22.2242 50H14.8937Z" fill="#00B4FF"/>
<path d="M32.9291 36.4486L40.725 50H33.7436L29.322 42.5234L32.9291 36.4486Z" fill="#00B4FF"/>
<path d="M25.8635 26.2844L0 26.1682L3.66525 32.542L22.3263 32.5165L25.8635 26.2844Z" fill="#00B4FF"/>
<path d="M12.9156 48.6282L20.7068 35.0741L13.6633 34.9751L9.42493 42.558L12.9156 48.6282Z" fill="#00B4FF"/>
</svg>
