<svg width="901" height="295" viewBox="0 0 901 295" fill="none" xmlns="http://www.w3.org/2000/svg">
<path fill-rule="evenodd" clip-rule="evenodd" d="M533.764 140.247L522.869 116L511.643 140.247H533.764ZM572.066 164V166.805H545.816L539.048 151.959H506.194L499.427 166.805H475.157V164C477.963 164 480.11 162.844 481.101 160.867L505.37 108.413C506.526 106.104 507.185 103.463 507.185 101.319C507.185 98.516 506.194 97.031 504.379 97.031V94.227H535.416L565.462 160.536C566.453 162.68 568.929 164 572.066 164V164ZM365.786 125.733H383.781C392.365 125.733 396.822 122.597 396.822 116.825C396.822 110.721 392.862 108.084 384.277 108.084H365.785V125.733H365.786ZM424.724 163.835V166.805H398.474L379.818 139.753H365.785V166.805H343.5V102.64C343.5 99.505 341.023 97.031 337.887 97.031V94.227H390.551C408.049 94.227 419.937 103.3 419.937 115.836C419.937 125.733 412.508 133.814 402.107 137.443L418.121 160.535C419.771 163.01 421.918 163.835 424.725 163.835H424.724ZM215.075 143.71C215.075 138.267 211.278 135.462 201.374 135.462H176.775V152.947H201.208C209.958 152.947 215.075 149.978 215.075 143.71ZM176.775 123.588H203.024C210.617 123.588 213.919 121.278 213.919 115.999C213.919 110.227 209.959 108.083 199.721 108.083H176.775V123.588ZM237.857 145.69C237.857 159.874 227.457 166.804 206.327 166.804H154.652V102.638C154.652 99.175 152.505 97.03 149.038 97.03V94.227H202.364C224.154 94.227 235.216 100.66 235.216 112.205C235.216 119.628 230.758 125.237 224.321 127.876C233.236 130.68 237.857 136.617 237.857 145.69ZM105.155 164C108.619 164 110.601 162.02 110.601 158.39V102.64C110.601 99.011 108.619 97.03 104.988 97.03V94.227H138.338V97.031C134.704 97.031 132.724 99.011 132.724 102.64V158.39C132.724 162.02 134.704 164 138.171 164V166.804H105.155V164ZM327.735 146.68V166.804H253.115V102.474C253.115 99.011 251.133 97.03 247.501 97.03V94.227H325.094V114.351H322.121C322.121 110.721 320.141 108.744 316.673 108.744H275.4V122.102H315.685V135.958H275.4V152.288H319.317C322.783 152.288 324.764 150.31 324.764 146.68H327.736H327.735ZM433.667 164C437.133 164 439.113 162.02 439.113 158.39V102.64C439.113 99.011 437.133 97.03 433.501 97.03V94.227H466.851V97.031C463.217 97.031 461.237 99.011 461.237 102.64V158.39C461.237 162.02 463.217 164 466.685 164V166.804H433.667V164V164ZM663.023 94.228V97.031C659.556 97.031 657.41 99.011 657.41 102.64V166.804H641.56L600.618 122.762V166.804H580.808V102.64C580.808 99.011 578.826 97.03 575.194 97.03V94.228H602.764L637.597 131.67V94.228H663.023V94.228ZM157.323 207V209.97C152.365 210.631 148.895 213.108 147.903 216.575L126.42 293.85H100.804L78.991 236.886L58.5 293.85H32.886L6.776 214.1C5.948 211.459 3.471 209.972 0.001 209.972V207H28.424L46.768 262.642L67.919 207H91.22L112.705 262.147L128.238 207H157.322H157.323ZM243.528 273.687V293.811H168.907V229.483C168.907 226.018 166.925 224.039 163.294 224.039V221.235H240.886V241.358H237.914C237.914 237.729 235.934 235.751 232.466 235.751H191.192V249.11H231.476V262.966H191.192V279.296H235.108C238.575 279.296 240.555 277.317 240.555 273.686H243.528V273.687ZM262.68 229.647C262.68 226.018 260.698 224.039 257.066 224.039V221.235H284.966V277.317H321.287C324.919 277.317 326.899 275.337 326.899 271.709H329.707V293.811H262.68V229.647ZM345.556 229.647C345.556 226.018 343.574 224.039 339.942 224.039V221.235H367.843V277.317H404.163C407.797 277.317 409.775 275.337 409.775 271.709H412.583V293.811H345.556V229.647V229.647ZM511.775 221.235V224.039C508.309 224.039 506.162 226.019 506.162 229.647V293.811H490.314L449.37 249.77V293.812H429.56V229.648C429.56 226.019 427.578 224.04 423.946 224.04V221.236H451.516L486.35 258.679V221.236H511.774L511.775 221.235ZM603.607 273.687V293.811H528.986V229.483C528.986 226.018 527.005 224.039 523.373 224.039V221.235H600.966V241.358H597.994C597.994 237.729 596.013 235.751 592.546 235.751H551.272V249.11H591.556V262.966H551.272V279.296H595.187C598.654 279.296 600.634 277.317 600.634 273.686H603.607V273.687ZM659.291 249.267C677.635 251.579 692.839 255.542 692.839 271.227C692.839 287.905 675.982 294.837 656.482 294.837C643.426 294.837 629.876 292.361 616.16 287.408L622.109 267.925L624.918 268.75C624.421 271.888 626.076 273.87 629.711 275.52C637.313 278.656 644.748 279.977 654.003 279.977C661.935 279.977 671.355 278.822 671.355 272.877C671.355 268.256 665.9 266.604 644.418 264.457C631.033 263.137 617.316 258.183 617.316 244.147C617.316 228.959 634.503 220.207 655.656 220.207C666.726 220.207 676.809 222.355 690.36 227.309L681.767 245.636L679.122 244.315C679.947 242.333 679.452 239.855 676.478 238.535C671.024 236.224 660.778 235.069 654.663 235.069C647.723 235.069 638.8 236.884 638.8 242.333C638.8 246.295 645.08 247.452 652.847 248.442L659.291 249.267V249.267ZM747.907 249.267C766.251 251.579 781.455 255.542 781.455 271.227C781.455 287.905 764.597 294.837 745.097 294.837C732.043 294.837 718.492 292.361 704.776 287.408L710.724 267.925L713.534 268.75C713.038 271.888 714.691 273.87 718.327 275.52C725.928 278.656 733.365 279.977 742.62 279.977C750.551 279.977 759.97 278.822 759.97 272.877C759.97 268.256 754.518 266.604 733.034 264.457C719.649 263.137 705.933 258.183 705.933 244.147C705.933 228.959 723.119 220.207 744.271 220.207C755.344 220.207 765.425 222.355 778.975 227.309L770.382 245.636L767.737 244.315C768.563 242.333 768.068 239.855 765.095 238.535C759.64 236.224 749.395 235.069 743.28 235.069C736.34 235.069 727.416 236.884 727.416 242.333C727.416 246.295 733.696 247.452 741.463 248.442L747.907 249.267V249.267ZM55.197 112.52C76.843 114.335 94.196 121.105 94.196 139.103C94.196 155.449 81.472 167.831 48.421 167.831C33.712 167.831 22.806 166.015 9.586 161.391C6.279 160.238 4.463 161.228 2.645 164.53L0 163.536L10.412 138.11C21.152 146.036 31.729 149.173 47.924 149.173C63.292 149.173 71.556 144.881 71.556 139.431C71.556 133.653 61.476 132.167 38.009 130.514C21.649 129.36 4.793 123.416 4.793 106.409C4.793 89.072 22.475 79 44.951 79C56.519 79 71.886 81.974 82.959 85.935C86.594 87.092 88.743 86.099 90.396 83.459L92.874 84.614L82.794 105.584C73.541 101.127 58.17 97.659 46.108 97.659C37.018 97.659 27.268 99.309 27.268 104.427C27.268 109.381 33.052 110.702 55.197 112.519V112.52Z" fill="#131413"/>
<path fill-rule="evenodd" clip-rule="evenodd" d="M812.49 76.205L802.004 94.35H747.484L737 76.205H812.49ZM772.647 50.804L783.132 68.949H737L747.484 50.804H772.647ZM860.719 43.546H839.749L862.816 3.629L873.3 21.773L860.719 43.546ZM818.781 79.835L829.266 97.979L802.005 145.153H781.036L818.781 79.835ZM776.841 101.608H797.811L774.744 141.526L764.26 123.381L776.842 101.608H776.841ZM812.489 68.948H791.52L764.26 21.773L774.745 3.63L812.489 68.948V68.948ZM822.974 123.381L833.459 105.236L856.524 145.154H835.555L822.974 123.381V123.381ZM825.071 76.205H846.04L873.3 123.38L862.816 141.525L825.071 76.205ZM825.071 68.948L835.556 50.804H890.076L900.56 68.948H825.071ZM854.428 76.205H900.561L890.076 94.35H864.914L854.428 76.205ZM856.525 0L818.781 65.318L781.035 0H802.005L818.781 29.031L835.556 0H856.525V0Z" fill="#009EE3"/>
</svg>
